<svg width="28" height="59" viewBox="0 0 28 59" fill="none" xmlns="http://www.w3.org/2000/svg"><g clip-path="url(#clip0_85_94)" fill="#000"><path d="M9.62 56.51l-.37-.94c.7-.28 1.4-.59 2.08-.94l.45.9c-.71.36-1.43.69-2.16.98zm4.22-2.13l-.53-.86c.64-.4 1.28-.83 1.89-1.28l.6.81c-.63.48-1.29.92-1.96 1.33zm3.81-2.79l-.66-.76c.57-.49 1.13-1.02 1.66-1.57l.72.71c-.56.56-1.13 1.1-1.72 1.62zm3.3-3.38l-.78-.65c.49-.58.95-1.19 1.39-1.81l.82.58c-.44.65-.93 1.28-1.43 1.88zm2.73-3.85l-.87-.52c.39-.65.75-1.33 1.08-2.01l.91.44c-.34.71-.72 1.41-1.12 2.09zm2.07-4.25l-.94-.37c.28-.71.52-1.43.74-2.16l.97.28c-.23.77-.48 1.52-.77 2.25zm1.33-4.53l-.99-.2c.05-.26.1-.53.15-.8.08-.48.15-.97.2-1.45l1 .11c-.06.51-.12 1.01-.21 1.51-.04.28-.09.55-.15.83zm.52-4.7l-1.01-.02c0-.19.01-.38.01-.57 0-.57-.02-1.14-.05-1.71l1.01-.06c.04.59.06 1.18.06 1.77-.02.19-.02.39-.02.59zm-1.3-4.57c-.11-.75-.25-1.5-.42-2.24l.98-.23c.18.77.32 1.55.44 2.32l-1 .15zm-1.02-4.44c-.23-.72-.49-1.44-.78-2.15l.93-.38c.3.73.57 1.47.8 2.22l-.95.31zm-1.72-4.23c-.34-.68-.71-1.35-1.11-2l.86-.52c.41.67.79 1.36 1.15 2.07l-.9.45zm-2.37-3.89c-.45-.62-.92-1.22-1.41-1.79l.77-.66c.51.59 1 1.22 1.47 1.85l-.83.6zm-2.98-3.45c-.54-.53-1.11-1.04-1.7-1.52l.65-.78c.61.49 1.2 1.03 1.76 1.58l-.71.72zm-3.52-2.89c-.61-.42-1.26-.83-1.93-1.23l.51-.87c.69.41 1.36.83 1.99 1.27l-.57.83zm-3.94-2.33c-.68-.34-1.37-.67-2.07-.98l.41-.92c.72.32 1.43.65 2.12 1.01l-.46.89zM6.56 3.21c-.72-.28-1.44-.54-2.17-.8l.34-.95c.74.26 1.47.53 2.19.81l-.36.94zM2.21 1.66C1.47 1.43.74 1.19 0 .96L.3 0c.74.23 1.48.46 2.22.71l-.31.95z"/><path d="M14.12 58.46l.34-.96-4.69-1.66 2-4.56-.92-.41-2.44 5.55 5.71 2.04z"/></g><defs><clipPath id="clip0_85_94"><path fill="#fff" d="M0 0h27.6v58.46H0z"/></clipPath></defs></svg>