<svg width="178" height="26" viewBox="0 0 178 26" fill="none" xmlns="http://www.w3.org/2000/svg"><path d="M25.934 9.472c-.132-.147-.41-.337-.836-.572a7.586 7.586 0 00-1.54-.66 5.488 5.488 0 00-1.826-.308c-1.657 0-2.486.587-2.486 1.76 0 .425.132.763.396 1.012.264.25.66.462 1.188.638.528.176 1.188.367 1.98.572 1.027.264 1.914.572 2.662.924.763.352 1.342.821 1.738 1.408.41.572.616 1.335.616 2.288 0 1.115-.271 2.017-.814 2.706-.528.675-1.232 1.166-2.112 1.474a8.6 8.6 0 01-2.86.462c-1.173 0-2.34-.176-3.498-.528a11.201 11.201 0 01-3.058-1.496l1.342-2.618c.132.132.367.308.704.528.337.205.748.418 1.232.638.484.205 1.012.381 1.584.528.572.147 1.151.22 1.738.22 1.672 0 2.508-.535 2.508-1.606 0-.455-.169-.821-.506-1.1-.337-.279-.814-.513-1.43-.704a93.441 93.441 0 00-2.112-.638c-.997-.279-1.826-.587-2.486-.924-.645-.352-1.13-.785-1.452-1.298-.323-.528-.484-1.195-.484-2.002 0-1.07.25-1.965.748-2.684.513-.733 1.203-1.283 2.068-1.65.865-.381 1.826-.572 2.882-.572a8.58 8.58 0 013.036.528c.939.352 1.745.755 2.42 1.21l-1.342 2.464zm3.065 8.118c0-.748.206-1.4.616-1.958.426-.572 1.012-1.012 1.76-1.32.748-.308 1.606-.462 2.574-.462.484 0 .976.044 1.474.132a5.72 5.72 0 011.298.33v-.616c0-.733-.22-1.298-.66-1.694-.425-.396-1.063-.594-1.914-.594-.63 0-1.232.11-1.804.33a9.125 9.125 0 00-1.804.968l-.946-1.936a9.442 9.442 0 012.332-1.122 8.519 8.519 0 012.53-.374c1.643 0 2.919.41 3.828 1.232.924.821 1.386 1.995 1.386 3.52V17.7c0 .323.052.55.154.682.103.117.286.19.55.22V21a4.863 4.863 0 01-.726.11c-.205.03-.381.044-.528.044-.586 0-1.034-.132-1.342-.396a1.555 1.555 0 01-.55-.968l-.066-.594a5.14 5.14 0 01-1.892 1.518 5.367 5.367 0 01-2.266.506c-.777 0-1.466-.154-2.068-.462a3.823 3.823 0 01-1.43-1.298A3.541 3.541 0 0129 17.59zm7.172.594c.367-.352.55-.69.55-1.012v-1.166a6.123 6.123 0 00-2.31-.462c-.777 0-1.408.169-1.892.506-.484.323-.726.755-.726 1.298 0 .44.176.836.528 1.188.352.352.858.528 1.518.528.44 0 .866-.08 1.276-.242a3.122 3.122 0 001.056-.638zM42.402 4.94h2.948v12.364c0 .543.088.902.264 1.078.176.176.418.264.726.264.235 0 .477-.03.726-.088.25-.059.47-.132.66-.22l.396 2.244c-.396.19-.858.337-1.386.44a7.558 7.558 0 01-1.43.154c-.924 0-1.643-.242-2.156-.726-.499-.499-.748-1.203-.748-2.112V4.94zm12.35 16.28c-1.246 0-2.324-.271-3.233-.814a5.776 5.776 0 01-2.09-2.156 6.033 6.033 0 01-.748-2.948c0-1.085.242-2.083.726-2.992a5.637 5.637 0 012.112-2.2c.909-.557 1.994-.836 3.256-.836 1.26 0 2.339.279 3.233.836a5.412 5.412 0 012.046 2.178 6.01 6.01 0 01.727 2.904c0 .381-.023.711-.066.99h-8.91c.073.895.403 1.599.99 2.112.6.513 1.29.77 2.067.77.587 0 1.137-.14 1.65-.418.529-.293.888-.675 1.078-1.144l2.53.704c-.425.88-1.107 1.606-2.045 2.178-.94.557-2.047.836-3.323.836zm-3.014-6.908h6.029c-.089-.865-.419-1.562-.99-2.09-.558-.543-1.24-.814-2.047-.814a2.87 2.87 0 00-2.045.814c-.558.528-.873 1.225-.947 2.09zm15.084 6.908a8.235 8.235 0 01-2.816-.484 6.33 6.33 0 01-2.31-1.43l1.056-1.914c.69.557 1.364.968 2.024 1.232.66.264 1.306.396 1.936.396.572 0 1.027-.103 1.364-.308.352-.205.528-.513.528-.924 0-.425-.212-.711-.638-.858a30.673 30.673 0 00-1.782-.594c-.85-.264-1.562-.535-2.134-.814-.572-.279-1.004-.616-1.298-1.012-.278-.396-.418-.91-.418-1.54 0-1.13.426-2.031 1.276-2.706.851-.675 1.98-1.012 3.388-1.012.822 0 1.599.132 2.332.396.734.25 1.401.66 2.002 1.232l-1.188 1.87c-1.129-.88-2.222-1.32-3.278-1.32-.469 0-.887.088-1.254.264-.352.176-.528.484-.528.924 0 .41.169.704.506.88.352.176.88.367 1.584.572.91.279 1.68.55 2.31.814.646.264 1.13.601 1.452 1.012.338.41.506.968.506 1.672 0 1.144-.418 2.039-1.254 2.684-.836.645-1.958.968-3.366.968zM79.02 21V5.38h3.036v12.958h7.964V21h-11zm11.77-3.41c0-.748.205-1.4.615-1.958.426-.572 1.012-1.012 1.76-1.32.748-.308 1.606-.462 2.574-.462.484 0 .976.044 1.474.132a5.72 5.72 0 011.298.33v-.616c0-.733-.22-1.298-.66-1.694-.425-.396-1.063-.594-1.914-.594-.63 0-1.232.11-1.804.33a9.122 9.122 0 00-1.804.968l-.946-1.936a9.44 9.44 0 012.332-1.122 8.518 8.518 0 012.53-.374c1.643 0 2.919.41 3.828 1.232.924.821 1.386 1.995 1.386 3.52V17.7c0 .323.052.55.154.682.103.117.286.19.55.22V21a4.863 4.863 0 01-.726.11c-.205.03-.381.044-.528.044-.586 0-1.034-.132-1.342-.396a1.555 1.555 0 01-.55-.968l-.066-.594a5.14 5.14 0 01-1.892 1.518 5.367 5.367 0 01-2.266.506c-.777 0-1.466-.154-2.068-.462a3.823 3.823 0 01-1.43-1.298 3.54 3.54 0 01-.506-1.87zm7.171.594c.367-.352.55-.69.55-1.012v-1.166a6.123 6.123 0 00-2.31-.462c-.777 0-1.408.169-1.892.506-.484.323-.726.755-.726 1.298 0 .44.176.836.528 1.188.352.352.858.528 1.518.528.44 0 .866-.08 1.276-.242a3.124 3.124 0 001.056-.638zm6.143-1.496V9.472h2.948v6.578c0 1.775.638 2.662 1.914 2.662.572 0 1.122-.169 1.65-.506.543-.352.983-.88 1.32-1.584v-7.15h2.948V17.7c0 .323.051.55.154.682.103.117.286.19.55.22V21a6.153 6.153 0 01-1.276.132c-.528 0-.961-.117-1.298-.352a1.483 1.483 0 01-.572-1.012l-.066-.924a4.908 4.908 0 01-1.98 1.782c-.807.396-1.694.594-2.662.594-1.188 0-2.09-.381-2.706-1.144-.616-.777-.924-1.907-.924-3.388zM128.527 21h-2.948v-6.468c0-.924-.162-1.599-.484-2.024-.323-.425-.77-.638-1.342-.638-.396 0-.8.103-1.21.308a3.701 3.701 0 00-1.078.858 3.207 3.207 0 00-.704 1.232V21h-2.948V9.472h2.662v2.134c.425-.719 1.041-1.283 1.848-1.694.806-.425 1.716-.638 2.728-.638.718 0 1.305.132 1.76.396.454.25.806.594 1.056 1.034.249.425.418.91.506 1.452.102.543.154 1.093.154 1.65V21zm7.931.22c-1.247 0-2.325-.279-3.234-.836a5.847 5.847 0 01-2.112-2.2 6.03 6.03 0 01-.748-2.948c0-1.07.242-2.06.726-2.97a5.686 5.686 0 012.112-2.178c.909-.543 1.987-.814 3.234-.814 1.261 0 2.332.271 3.212.814.895.543 1.562 1.254 2.002 2.134l-2.882.88c-.513-.88-1.298-1.32-2.354-1.32a2.78 2.78 0 00-1.54.44c-.455.279-.814.682-1.078 1.21-.264.513-.396 1.115-.396 1.804 0 .675.132 1.276.396 1.804.279.513.645.924 1.1 1.232.455.293.961.44 1.518.44.528 0 1.012-.125 1.452-.374.455-.264.77-.594.946-.99l2.882.88c-.396.865-1.056 1.584-1.98 2.156-.909.557-1.995.836-3.256.836zm17.764-.22h-2.948v-6.468c0-.895-.176-1.562-.528-2.002-.337-.44-.807-.66-1.408-.66-.367 0-.748.103-1.144.308a3.84 3.84 0 00-1.056.858 3.38 3.38 0 00-.682 1.232V21h-2.948V4.94h2.948v6.666a4.542 4.542 0 011.738-1.716 4.826 4.826 0 012.398-.616c.983 0 1.738.22 2.266.66.528.44.887 1.005 1.078 1.694a8.12 8.12 0 01.286 2.178V21z" fill="#232323"/><path d="M1.828 13.243l6.117 2.637v1.107l-7.268-3.33v-.853L7.945 9.48v1.108l-6.117 2.654zm160.394 6.856h-.958l5.343-13.896h.95L162.222 20.1zm13.271-6.891l-6.249-2.663V9.464l7.427 3.322v.853l-7.427 3.33v-1.09l6.249-2.671z" fill="#ABABAB"/></svg>