<svg width="98" height="70" viewBox="0 0 98 70" fill="none" xmlns="http://www.w3.org/2000/svg"><g opacity=".7" clip-path="url(#clip0_85_572)" fill="#fff"><path d="M0 40.217c1.534 4.528 3.072 9.052 4.596 13.583 1.539 4.567 3.06 9.136 4.594 13.705.627 1.866 1.474 2.483 3.452 2.49 2.646.01 5.295.005 7.941.002 2.608-.002 3.596-.976 3.598-3.547.003-7.586 0-15.172 0-22.757v-1.21h1.146c4.594 0 9.185.003 13.779 0 2.479-.002 3.553-1.069 3.553-3.543.002-11.807.002-23.614 0-35.421 0-2.422-1.072-3.488-3.496-3.488C27.397.026 15.628.05 3.86 0 2.082-.007.766.47 0 2.12v38.096zm79.559 2.263h1.21c4.656 0 9.312.008 13.968-.004 2.033-.005 3.254-1.133 3.256-3.052.012-12.124.012-24.248 0-36.372-.002-1.85-1.199-3.019-3.077-3.021-12.151-.01-24.3-.01-36.452 0-1.926.002-3.115 1.164-3.118 3.09-.014 12.06-.012 24.12.01 36.181 0 .62.172 1.26.37 1.853 2.927 8.78 5.867 17.557 8.81 26.333.636 1.9 1.49 2.502 3.54 2.507 2.68.007 5.358.007 8.037 0 2.39-.007 3.443-1.047 3.446-3.428.007-7.617.002-15.234.002-22.85-.002-.374-.002-.748-.002-1.236z"/></g><defs><clipPath id="clip0_85_572"><path fill="#fff" transform="matrix(-1 0 0 1 98 0)" d="M0 0h98v70H0z"/></clipPath></defs></svg>