<svg width="44" height="51" viewBox="0 0 44 51" fill="none" xmlns="http://www.w3.org/2000/svg"><path d="M25.578 49h-7.302M20.78 2.4c-4.335 3.473-18.829 17.344-6.155 39.3h14.602c12.41-21.94-1.872-35.807-6.16-39.29a1.822 1.822 0 00-2.287-.01v0z" stroke="#CCBD98" stroke-width="4" stroke-linecap="round" stroke-linejoin="round"/><path d="M9.576 23.3l-7.153 8.583a1.825 1.825 0 00-.38 1.565L4.864 46.14a1.825 1.825 0 002.922 1.03l6.84-5.472M34.14 23.135l7.291 8.748a1.828 1.828 0 01.38 1.565L38.99 46.14a1.824 1.824 0 01-2.922 1.03l-6.84-5.472" stroke="#CCBD98" stroke-width="4" stroke-linecap="round" stroke-linejoin="round"/><path d="M21.927 22.533a2.738 2.738 0 100-5.476 2.738 2.738 0 000 5.476z" fill="#CCBD98"/></svg>