<svg width="24" height="24" viewBox="0 0 24 24" fill="none" xmlns="http://www.w3.org/2000/svg"><path fill-rule="evenodd" clip-rule="evenodd" d="M14.849 5.658a3.086 3.086 0 00-3.027 3.693 1 1 0 01-1.103 1.188 11.168 11.168 0 01-5.834-2.544c.03.602.24 1.242.693 1.912l.679 1.004-1.115.475-.215.092c.16.183.352.37.567.555.287.246.591.472.91.676l.01.007h.002l1.548.939-1.62.81c-.08.04-.16.076-.24.108.348.29.732.533 1.142.726l1.39.657-1.164 1.004c-.635.548-1.274.957-2.103 1.173a8.749 8.749 0 004.13 1.027c4.807 0 8.677-3.835 8.677-8.534v-.52l.425-.3c.664-.465 1.133-1.095 1.469-1.816h-2.16l-.272-.57a3.085 3.085 0 00-2.788-1.762h-.001zm-11.28 7.3a.999.999 0 00-.237.797c.113.8.592 1.49 1.122 2.018.144.143.298.28.46.41l-.075.02c-.481.12-1.13.146-2.211.04a1 1 0 00-.813 1.695 10.717 10.717 0 007.684 3.222c5.713 0 10.399-4.436 10.664-10.034 1.29-1.083 1.935-2.55 2.283-3.883a.999.999 0 00-.968-1.253h-2.353A5.085 5.085 0 009.78 8.329a9.214 9.214 0 01-4.721-2.975 1 1 0 00-1.673.23C2.78 6.906 2.664 8.43 3.34 9.98l-.234.1a1 1 0 00-.57 1.193c.186.652.604 1.228 1.032 1.685z" fill="#009EE2"/></svg>